<svg data-v-fde0c5aa="" xmlns="http://www.w3.org/2000/svg" viewBox="0 0 300 300" class="iconAbove"><!----><defs data-v-fde0c5aa=""><!----></defs><rect data-v-fde0c5aa="" fill="transparent" x="0" y="0" width="300px" height="300px" class="logo-background-square"></rect><defs data-v-fde0c5aa=""><!----></defs><g data-v-fde0c5aa="" id="c793ba12-7001-42b3-9837-3af6a22d992b" fill="#000000" transform="matrix(3.4114765661397835,0,0,3.4114765661397835,20.454863515039992,167.94944060394212)"><path d="M0.90 6.22L0.90 6.22Q0.71 6.17 0.51 6.05Q0.31 5.93 0.16 5.78Q0 5.62-0.08 5.43Q-0.16 5.24-0.12 5.02L-0.12 5.02Q-0.04 4.57 0.40 4.17Q0.83 3.77 1.57 3.54L1.57 3.54L1.57 3.50Q1.59 3.35 1.77 3.19Q1.96 3.04 2.23 2.98L2.23 2.98Q2.49 2.93 2.60 2.98Q2.72 3.04 2.72 3.13L2.72 3.13Q2.72 3.16 2.71 3.19Q2.71 3.23 2.71 3.25L2.71 3.25L2.71 3.32Q3.38 3.27 4.20 3.36L4.20 3.36Q5.18 3.49 5.80 3.83Q6.41 4.17 6.73 4.61Q7.04 5.06 7.12 5.54Q7.19 6.02 7.11 6.41L7.11 6.41Q7.03 6.88 6.81 7.25Q6.59 7.63 6.29 7.92Q5.99 8.22 5.62 8.44Q5.25 8.65 4.84 8.80L4.84 8.80Q5.28 8.90 5.58 9.11Q5.89 9.32 6.08 9.61Q6.28 9.90 6.36 10.25Q6.44 10.61 6.41 10.98L6.41 10.98Q6.38 11.55 6.12 12.05Q5.85 12.55 5.40 12.92Q4.95 13.29 4.33 13.49Q3.71 13.70 2.95 13.67L2.95 13.67L2.79 13.67Q2.58 13.85 2.34 13.94Q2.11 14.03 1.89 14.07L1.89 14.07Q1.64 14.12 1.39 14.11L1.39 14.11Q1.39 14.01 1.40 13.91Q1.41 13.81 1.41 13.71L1.41 13.71Q1.41 13.60 1.42 13.49L1.42 13.49Q1.26 13.47 1.11 13.41L1.11 13.41Q0.97 13.37 0.83 13.32Q0.68 13.28 0.57 13.22L0.57 13.22Q0.52 13.14 0.49 13.02L0.49 13.02Q0.46 12.91 0.46 12.78Q0.45 12.65 0.51 12.48L0.51 12.48Q0.93 12.65 1.48 12.73L1.48 12.73Q1.50 12.03 1.52 11.07Q1.54 10.12 1.54 9.06L1.54 9.06Q1.54 7.88 1.55 6.73Q1.56 5.58 1.56 4.76L1.56 4.76Q1.16 4.96 0.94 5.32Q0.72 5.67 0.90 6.22ZM5.11 11.05L5.11 11.05Q5.17 10.45 4.94 10.08Q4.70 9.72 4.33 9.54Q3.95 9.35 3.51 9.31Q3.06 9.27 2.71 9.30L2.71 9.30Q2.73 10.43 2.75 11.35Q2.76 12.28 2.78 12.87L2.78 12.87Q3.20 12.88 3.60 12.77Q3.99 12.66 4.31 12.43Q4.63 12.20 4.85 11.85Q5.07 11.50 5.11 11.05ZM2.68 4.44L2.68 4.44Q2.65 5.14 2.65 6.10Q2.65 7.05 2.68 8.23L2.68 8.23Q2.68 8.34 2.68 8.44Q2.68 8.54 2.69 8.65L2.69 8.65Q3.19 8.61 3.72 8.42Q4.25 8.22 4.70 7.89Q5.14 7.56 5.43 7.12Q5.71 6.67 5.71 6.14L5.71 6.14Q5.71 5.73 5.50 5.41Q5.28 5.09 4.92 4.87Q4.55 4.65 4.08 4.54Q3.61 4.43 3.10 4.43L3.10 4.43Q2.99 4.43 2.89 4.43Q2.79 4.43 2.68 4.44ZM9.28 12.71L9.28 12.71Q8.33 12.71 7.81 12.07Q7.29 11.43 7.29 10.39L7.29 10.39Q7.29 9.67 7.50 9.03Q7.71 8.39 8.07 7.93Q8.42 7.46 8.89 7.20Q9.37 6.93 9.88 6.93L9.88 6.93Q10.39 6.93 10.75 7.29Q11.10 7.66 11.10 8.33L11.10 8.33Q11.10 8.76 10.91 9.19Q10.72 9.63 10.41 9.96Q10.10 10.29 9.73 10.50Q9.37 10.71 9.02 10.71L9.02 10.71Q8.80 10.71 8.65 10.65Q8.50 10.60 8.38 10.49L8.38 10.49Q8.42 11.27 8.72 11.57Q9.02 11.88 9.50 11.88L9.50 11.88Q9.83 11.88 10.08 11.74Q10.34 11.61 10.51 11.43Q10.69 11.25 10.80 11.07Q10.91 10.88 10.95 10.79L10.95 10.79Q10.99 10.71 11.09 10.71Q11.20 10.71 11.20 10.87L11.20 10.87Q11.20 11.02 11.09 11.33Q10.99 11.63 10.76 11.94Q10.53 12.25 10.17 12.48Q9.80 12.71 9.28 12.71ZM9.91 7.52L9.91 7.52Q9.83 7.52 9.60 7.69Q9.38 7.86 9.13 8.19Q8.87 8.52 8.66 8.98Q8.45 9.43 8.39 10.01L8.39 10.01Q9.21 9.82 9.69 9.41Q10.17 9.00 10.17 8.20L10.17 8.20Q10.17 7.81 10.08 7.66Q9.98 7.52 9.91 7.52ZM17.13 6.48L17.13 6.48Q16.98 6.45 16.73 6.43Q16.47 6.40 16.21 6.38L16.21 6.38Q15.91 6.37 15.57 6.37L15.57 6.37Q15.23 6.34 14.72 6.36Q14.21 6.38 13.64 6.38L13.64 6.38Q13.63 6.74 13.60 7.11Q13.56 7.48 13.54 7.83L13.54 7.83Q13.47 8.49 13.42 9.17Q13.37 9.86 13.37 10.47Q13.37 11.09 13.45 11.59Q13.52 12.09 13.73 12.37L13.73 12.37Q13.56 12.50 13.37 12.56Q13.18 12.62 13.03 12.65L13.03 12.65Q12.85 12.69 12.67 12.69L12.67 12.69Q12.51 12.69 12.40 12.58Q12.29 12.47 12.28 12.20L12.28 12.20Q12.25 11.73 12.27 11.26Q12.29 10.79 12.33 10.27Q12.36 9.75 12.40 9.15Q12.44 8.56 12.48 7.85L12.48 7.85Q12.52 7.11 12.52 6.41L12.52 6.41Q12.00 6.43 11.65 6.43Q11.29 6.43 11.25 6.41L11.25 6.41Q11.21 6.38 11.16 6.29L11.16 6.29Q11.10 6.21 11.01 6.04Q10.92 5.88 10.79 5.58L10.79 5.58Q11.05 5.58 11.35 5.58Q11.66 5.58 11.92 5.56L11.92 5.56Q12.22 5.55 12.52 5.54L12.52 5.54Q12.51 5.32 12.51 5.07L12.51 5.07Q12.50 4.88 12.50 4.64Q12.50 4.40 12.48 4.20L12.48 4.20Q12.48 4.12 12.68 4.00Q12.88 3.88 13.11 3.79Q13.34 3.69 13.54 3.66Q13.74 3.64 13.74 3.76L13.74 3.76Q13.74 3.88 13.73 4.35Q13.73 4.83 13.70 5.50L13.70 5.50Q13.84 5.50 13.90 5.48L13.90 5.48Q14.63 5.46 15.07 5.42Q15.52 5.39 15.80 5.41Q16.09 5.44 16.31 5.55Q16.53 5.66 16.80 5.91L16.80 5.91Q16.90 5.99 16.97 6.08L16.97 6.08Q17.04 6.17 17.08 6.27Q17.13 6.37 17.13 6.48ZM20.88 7.16L20.88 7.16Q21.53 7.16 21.40 8.00L21.40 8.00Q21.34 8.35 21.21 8.96Q21.07 9.56 20.86 10.21Q20.66 10.86 20.39 11.47Q20.13 12.09 19.81 12.48L19.81 12.48Q19.52 12.62 19.32 12.65L19.32 12.65Q19.21 12.67 19.13 12.66L19.13 12.66Q19.02 12.66 18.92 12.63Q18.83 12.61 18.74 12.52Q18.65 12.44 18.57 12.28Q18.50 12.11 18.46 11.83L18.46 11.83Q18.39 11.40 18.26 10.91Q18.13 10.42 17.99 10.01L17.99 10.01Q17.87 10.38 17.74 10.75Q17.61 11.13 17.48 11.46Q17.35 11.79 17.23 12.04Q17.10 12.30 16.99 12.44L16.99 12.44Q16.54 12.65 16.34 12.69L16.34 12.69Q16.21 12.73 16.13 12.71L16.13 12.71Q15.86 12.36 15.65 11.96Q15.45 11.55 15.33 11.20L15.33 11.20Q15.18 10.79 15.08 10.38L15.08 10.38Q14.97 9.86 14.93 9.38Q14.89 8.90 14.85 8.50Q14.82 8.09 14.77 7.79Q14.72 7.49 14.60 7.31L14.60 7.31Q14.72 7.22 14.89 7.13Q15.05 7.04 15.23 7.02Q15.41 7 15.59 7.05Q15.78 7.10 15.96 7.26L15.96 7.26Q15.98 7.62 16.00 7.95Q16.01 8.29 16.02 8.56L16.02 8.56Q16.04 8.87 16.04 9.15L16.04 9.15Q16.05 9.49 16.07 9.87Q16.09 10.25 16.13 10.62Q16.17 10.99 16.26 11.31Q16.35 11.63 16.50 11.85L16.50 11.85Q16.65 11.61 16.93 11.04Q17.20 10.47 17.38 9.61L17.38 9.61Q17.45 9.26 17.47 8.90Q17.49 8.54 17.47 8.25Q17.45 7.96 17.41 7.73Q17.38 7.51 17.34 7.41L17.34 7.41Q17.45 7.34 17.57 7.31Q17.69 7.27 17.80 7.25L17.80 7.25Q17.92 7.22 18.03 7.22L18.03 7.22Q18.39 7.19 18.52 7.35Q18.65 7.51 18.58 7.93L18.58 7.93Q18.57 8.04 18.51 8.26Q18.46 8.49 18.38 8.80L18.38 8.80Q18.46 9.08 18.57 9.50Q18.68 9.91 18.79 10.31L18.79 10.31Q18.87 10.69 18.95 11.09Q19.03 11.48 19.09 11.79L19.09 11.79Q19.15 11.77 19.22 11.73Q19.29 11.69 19.35 11.58L19.35 11.58Q19.40 11.48 19.50 11.27Q19.59 11.05 19.70 10.73Q19.81 10.42 19.91 10.04Q20.02 9.65 20.10 9.21L20.10 9.21Q20.25 8.34 20.21 7.94Q20.18 7.55 20.06 7.41L20.06 7.41Q20.19 7.31 20.34 7.27Q20.48 7.22 20.60 7.19L20.60 7.19Q20.75 7.16 20.88 7.16ZM23.90 12.71L23.90 12.71Q22.94 12.71 22.42 12.07Q21.90 11.43 21.90 10.39L21.90 10.39Q21.90 9.67 22.11 9.03Q22.33 8.39 22.68 7.93Q23.04 7.46 23.51 7.20Q23.98 6.93 24.50 6.93L24.50 6.93Q25.01 6.93 25.36 7.29Q25.72 7.66 25.72 8.33L25.72 8.33Q25.72 8.76 25.53 9.19Q25.33 9.63 25.03 9.96Q24.72 10.29 24.35 10.50Q23.98 10.71 23.64 10.71L23.64 10.71Q23.42 10.71 23.27 10.65Q23.12 10.60 23.00 10.49L23.00 10.49Q23.04 11.27 23.34 11.57Q23.64 11.88 24.12 11.88L24.12 11.88Q24.45 11.88 24.70 11.74Q24.95 11.61 25.13 11.43Q25.31 11.25 25.42 11.07Q25.53 10.88 25.57 10.79L25.57 10.79Q25.61 10.71 25.71 10.71Q25.81 10.71 25.81 10.87L25.81 10.87Q25.81 11.02 25.71 11.33Q25.61 11.63 25.38 11.94Q25.14 12.25 24.78 12.48Q24.42 12.71 23.90 12.71ZM24.53 7.52L24.53 7.52Q24.45 7.52 24.22 7.69Q23.99 7.86 23.74 8.19Q23.49 8.52 23.28 8.98Q23.06 9.43 23.01 10.01L23.01 10.01Q23.83 9.82 24.31 9.41Q24.79 9.00 24.79 8.20L24.79 8.20Q24.79 7.81 24.69 7.66Q24.60 7.52 24.53 7.52ZM28.44 12.71L28.44 12.71Q27.48 12.71 26.96 12.07Q26.44 11.43 26.44 10.39L26.44 10.39Q26.44 9.67 26.65 9.03Q26.87 8.39 27.22 7.93Q27.58 7.46 28.05 7.20Q28.52 6.93 29.04 6.93L29.04 6.93Q29.54 6.93 29.90 7.29Q30.26 7.66 30.26 8.33L30.26 8.33Q30.26 8.76 30.06 9.19Q29.87 9.63 29.57 9.96Q29.26 10.29 28.89 10.50Q28.52 10.71 28.18 10.71L28.18 10.71Q27.96 10.71 27.81 10.65Q27.66 10.60 27.54 10.49L27.54 10.49Q27.58 11.27 27.88 11.57Q28.18 11.88 28.66 11.88L28.66 11.88Q28.98 11.88 29.24 11.74Q29.49 11.61 29.67 11.43Q29.85 11.25 29.96 11.07Q30.06 10.88 30.11 10.79L30.11 10.79Q30.15 10.71 30.25 10.71Q30.35 10.71 30.35 10.87L30.35 10.87Q30.35 11.02 30.25 11.33Q30.15 11.63 29.91 11.94Q29.68 12.25 29.32 12.48Q28.96 12.71 28.44 12.71ZM29.07 7.52L29.07 7.52Q28.98 7.52 28.76 7.69Q28.53 7.86 28.28 8.19Q28.03 8.52 27.82 8.98Q27.60 9.43 27.55 10.01L27.55 10.01Q28.37 9.82 28.85 9.41Q29.33 9.00 29.33 8.20L29.33 8.20Q29.33 7.81 29.23 7.66Q29.13 7.52 29.07 7.52ZM32.57 12.20L32.57 12.20Q32.55 12.28 32.42 12.37Q32.29 12.46 32.12 12.52Q31.95 12.59 31.80 12.61Q31.65 12.63 31.60 12.58L31.60 12.58Q31.54 12.52 31.42 12.37Q31.29 12.22 31.27 11.88L31.27 11.88Q31.24 11.53 31.24 10.99Q31.24 10.45 31.23 9.79L31.23 9.79L31.23 9.24Q31.23 9.00 31.22 8.67Q31.21 8.34 31.20 7.98L31.20 7.98Q31.32 7.92 31.45 7.85Q31.58 7.79 31.69 7.75L31.69 7.75Q31.81 7.70 31.92 7.67L31.92 7.67Q32.21 7.59 32.36 7.57Q32.51 7.56 32.54 7.67L32.54 7.67Q32.55 7.75 32.53 8.07L32.53 8.07Q32.50 8.34 32.46 8.89Q32.42 9.45 32.32 10.43L32.32 10.43Q32.50 9.99 32.61 9.68Q32.73 9.37 32.81 9.17L32.81 9.17Q32.89 8.94 32.96 8.80L32.96 8.80Q33.03 8.63 33.14 8.41Q33.25 8.19 33.37 8.00Q33.48 7.81 33.58 7.66Q33.69 7.51 33.74 7.48L33.74 7.48Q33.78 7.45 33.99 7.48Q34.19 7.51 34.43 7.61Q34.66 7.71 34.88 7.90Q35.10 8.08 35.16 8.34L35.16 8.34Q35.25 8.64 35.23 9.13Q35.21 9.63 35.16 10.14Q35.11 10.66 35.08 11.13Q35.05 11.59 35.14 11.84L35.14 11.84Q35.16 11.98 35.22 12.09L35.22 12.09Q35.25 12.20 35.29 12.28Q35.34 12.37 35.40 12.41L35.40 12.41Q35.07 12.56 34.86 12.63Q34.66 12.70 34.55 12.73L34.55 12.73Q34.41 12.77 34.36 12.76L34.36 12.76Q34.23 12.71 34.15 12.55Q34.06 12.39 33.99 12.03L33.99 12.03Q33.96 11.92 33.97 11.67Q33.97 11.42 34.00 11.09Q34.03 10.77 34.06 10.42Q34.10 10.08 34.12 9.77Q34.14 9.46 34.15 9.24Q34.17 9.01 34.15 8.93L34.15 8.93Q34.08 8.68 33.96 8.58Q33.84 8.48 33.77 8.56L33.77 8.56Q33.59 8.76 33.39 9.22Q33.20 9.68 33.02 10.22Q32.84 10.76 32.72 11.29Q32.59 11.83 32.57 12.20ZM39.59 6.22L39.59 6.22Q39.40 6.17 39.20 6.05Q39.01 5.93 38.85 5.78Q38.69 5.62 38.61 5.43Q38.53 5.24 38.57 5.02L38.57 5.02Q38.65 4.57 39.09 4.17Q39.53 3.77 40.26 3.54L40.26 3.54L40.26 3.50Q40.28 3.35 40.46 3.19Q40.65 3.04 40.92 2.98L40.92 2.98Q41.18 2.93 41.30 2.98Q41.41 3.04 41.41 3.13L41.41 3.13Q41.41 3.16 41.41 3.19Q41.40 3.23 41.40 3.25L41.40 3.25L41.40 3.32Q42.07 3.27 42.89 3.36L42.89 3.36Q43.87 3.49 44.49 3.83Q45.10 4.17 45.42 4.61Q45.73 5.06 45.81 5.54Q45.88 6.02 45.80 6.41L45.80 6.41Q45.72 6.88 45.50 7.25Q45.28 7.63 44.98 7.92Q44.68 8.22 44.31 8.44Q43.94 8.65 43.53 8.80L43.53 8.80Q43.97 8.90 44.28 9.11Q44.58 9.32 44.78 9.61Q44.97 9.90 45.05 10.25Q45.13 10.61 45.10 10.98L45.10 10.98Q45.08 11.55 44.81 12.05Q44.54 12.55 44.09 12.92Q43.64 13.29 43.02 13.49Q42.40 13.70 41.64 13.67L41.64 13.67L41.48 13.67Q41.28 13.85 41.04 13.94Q40.80 14.03 40.58 14.07L40.58 14.07Q40.33 14.12 40.09 14.11L40.09 14.11Q40.09 14.01 40.09 13.91Q40.10 13.81 40.10 13.71L40.10 13.71Q40.10 13.60 40.11 13.49L40.11 13.49Q39.95 13.47 39.80 13.41L39.80 13.41Q39.66 13.37 39.52 13.32Q39.38 13.28 39.27 13.22L39.27 13.22Q39.21 13.14 39.18 13.02L39.18 13.02Q39.16 12.91 39.15 12.78Q39.14 12.65 39.20 12.48L39.20 12.48Q39.62 12.65 40.17 12.73L40.17 12.73Q40.20 12.03 40.22 11.07Q40.24 10.12 40.24 9.06L40.24 9.06Q40.24 7.88 40.24 6.73Q40.25 5.58 40.25 4.76L40.25 4.76Q39.85 4.96 39.63 5.32Q39.42 5.67 39.59 6.22ZM43.80 11.05L43.80 11.05Q43.86 10.45 43.63 10.08Q43.39 9.72 43.02 9.54Q42.64 9.35 42.20 9.31Q41.75 9.27 41.40 9.30L41.40 9.30Q41.43 10.43 41.44 11.35Q41.45 12.28 41.47 12.87L41.47 12.87Q41.89 12.88 42.29 12.77Q42.68 12.66 43.00 12.43Q43.33 12.20 43.54 11.85Q43.76 11.50 43.80 11.05ZM41.37 4.44L41.37 4.44Q41.34 5.14 41.34 6.10Q41.34 7.05 41.37 8.23L41.37 8.23Q41.37 8.34 41.37 8.44Q41.37 8.54 41.38 8.65L41.38 8.65Q41.88 8.61 42.41 8.42Q42.94 8.22 43.39 7.89Q43.83 7.56 44.12 7.12Q44.41 6.67 44.41 6.14L44.41 6.14Q44.41 5.73 44.19 5.41Q43.97 5.09 43.61 4.87Q43.24 4.65 42.77 4.54Q42.30 4.43 41.79 4.43L41.79 4.43Q41.69 4.43 41.58 4.43Q41.48 4.43 41.37 4.44ZM49.98 8.37L49.98 8.37Q49.98 8.56 49.88 8.76Q49.78 8.96 49.63 9.13Q49.48 9.31 49.29 9.44Q49.11 9.57 48.95 9.60L48.95 9.60Q49.05 9.17 49.01 8.94Q48.97 8.71 48.88 8.60L48.88 8.60Q48.77 8.48 48.60 8.46L48.60 8.46Q48.36 8.46 48.13 8.74Q47.91 9.02 47.74 9.43Q47.58 9.83 47.48 10.29Q47.39 10.75 47.39 11.12L47.39 11.12Q47.37 11.38 47.40 11.62L47.40 11.62Q47.41 11.83 47.45 12.04Q47.48 12.26 47.55 12.39L47.55 12.39Q47.47 12.46 47.28 12.55Q47.10 12.65 46.90 12.67Q46.70 12.70 46.55 12.61Q46.39 12.51 46.38 12.20L46.38 12.20Q46.35 11.89 46.34 11.52Q46.33 11.14 46.34 10.77Q46.35 10.39 46.36 10.02Q46.38 9.65 46.40 9.34L46.40 9.34Q46.43 8.74 46.43 8.41Q46.43 8.08 46.42 7.78L46.42 7.78Q46.42 7.72 46.60 7.62Q46.79 7.52 47.01 7.44Q47.24 7.36 47.43 7.34Q47.62 7.33 47.62 7.42L47.62 7.42Q47.62 7.57 47.58 8.02Q47.55 8.46 47.50 8.94L47.50 8.94Q47.59 8.68 47.75 8.38Q47.91 8.08 48.11 7.82Q48.32 7.56 48.58 7.39Q48.84 7.22 49.15 7.22L49.15 7.22Q49.40 7.22 49.55 7.37Q49.71 7.52 49.81 7.71Q49.90 7.90 49.94 8.09Q49.98 8.29 49.98 8.37ZM54.37 11.87L54.37 11.87Q54.40 11.96 54.46 12.04L54.46 12.04Q54.50 12.11 54.57 12.17Q54.65 12.24 54.76 12.25L54.76 12.25Q54.66 12.44 54.56 12.51L54.56 12.51Q54.51 12.55 54.47 12.56L54.47 12.56Q54.35 12.61 54.10 12.61Q53.85 12.61 53.62 12.46L53.62 12.46Q53.54 12.39 53.47 12.25L53.47 12.25Q53.40 12.14 53.35 11.94Q53.31 11.74 53.28 11.43L53.28 11.43Q53.09 11.84 52.85 12.08Q52.61 12.32 52.38 12.43L52.38 12.43Q52.12 12.58 51.84 12.61L51.84 12.61Q51.50 12.63 51.19 12.49Q50.89 12.35 50.67 12.05Q50.46 11.76 50.35 11.33Q50.24 10.91 50.29 10.38L50.29 10.38Q50.33 9.82 50.50 9.38Q50.68 8.94 50.93 8.60Q51.17 8.26 51.45 8.02Q51.72 7.78 51.97 7.62Q52.23 7.46 52.41 7.39Q52.60 7.31 52.65 7.30L52.65 7.30Q52.80 7.26 52.91 7.27Q53.02 7.29 53.10 7.40L53.10 7.40Q53.13 7.44 53.17 7.49L53.17 7.49Q53.20 7.55 53.24 7.64Q53.28 7.72 53.31 7.83L53.31 7.83Q52.98 7.98 52.69 8.17Q52.40 8.35 52.17 8.61Q51.93 8.87 51.75 9.24Q51.57 9.61 51.47 10.14L51.47 10.14Q51.34 10.81 51.55 11.22Q51.76 11.63 52.13 11.57L52.13 11.57Q52.35 11.50 52.55 11.31L52.55 11.31Q52.73 11.14 52.93 10.81Q53.13 10.49 53.31 9.91L53.31 9.91Q53.38 9.09 53.42 8.62Q53.47 8.15 53.51 7.90L53.51 7.90Q53.57 7.62 53.59 7.52L53.59 7.52Q53.63 7.45 53.76 7.39Q53.88 7.33 54.03 7.29Q54.18 7.25 54.30 7.24Q54.43 7.23 54.47 7.25L54.47 7.25Q54.50 7.26 54.50 7.58Q54.50 7.90 54.48 8.39Q54.46 8.87 54.43 9.44Q54.40 10.01 54.38 10.51Q54.36 11.02 54.35 11.40Q54.35 11.77 54.37 11.87ZM59.29 10.84L59.29 10.84Q59.29 10.99 59.19 11.30Q59.09 11.61 58.86 11.92Q58.63 12.22 58.26 12.46Q57.90 12.69 57.38 12.69L57.38 12.69Q56.64 12.69 56.14 12.28Q55.64 11.88 55.44 11.13L55.44 11.13Q55.28 10.50 55.35 9.78Q55.43 9.06 55.74 8.45Q56.05 7.83 56.62 7.40Q57.18 6.97 57.98 6.93L57.98 6.93Q58.39 6.92 58.67 7.08Q58.94 7.25 59.09 7.51Q59.24 7.77 59.27 8.07Q59.29 8.38 59.21 8.65Q59.12 8.93 58.93 9.11Q58.75 9.30 58.46 9.31L58.46 9.31Q58.17 9.34 57.99 9.24Q57.80 9.13 57.70 8.98Q57.60 8.83 57.57 8.67Q57.53 8.50 57.56 8.38L57.56 8.38Q57.60 8.20 57.70 8.05L57.70 8.05Q57.78 7.92 57.93 7.78Q58.09 7.64 58.35 7.56L58.35 7.56Q58.31 7.53 58.27 7.53Q58.23 7.53 58.19 7.52L58.19 7.52Q58.13 7.52 58.11 7.51L58.11 7.51Q57.89 7.51 57.61 7.66Q57.33 7.81 57.07 8.13Q56.82 8.46 56.65 8.98Q56.48 9.49 56.48 10.21L56.48 10.21Q56.48 10.53 56.55 10.83Q56.62 11.14 56.76 11.38Q56.90 11.62 57.11 11.76Q57.33 11.91 57.61 11.91L57.61 11.91Q57.94 11.91 58.19 11.76Q58.45 11.62 58.63 11.43Q58.80 11.24 58.91 11.05Q59.01 10.86 59.05 10.76L59.05 10.76Q59.09 10.68 59.19 10.68Q59.29 10.68 59.29 10.84ZM62.85 9.30L62.85 9.30Q63.14 9.42 63.40 9.69Q63.66 9.95 63.72 10.49L63.72 10.49Q63.78 10.95 63.88 11.32Q63.97 11.69 64.15 11.98Q64.33 12.28 64.62 12.50Q64.91 12.73 65.38 12.89L65.38 12.89Q65.26 13.00 65.08 13.07Q64.91 13.14 64.76 13.17L64.76 13.17Q64.59 13.22 64.39 13.22L64.39 13.22Q63.94 13.26 63.66 13.10Q63.37 12.95 63.21 12.65Q63.04 12.35 62.96 11.95Q62.88 11.55 62.84 11.13L62.84 11.13Q62.82 10.95 62.79 10.76Q62.77 10.57 62.70 10.39Q62.63 10.21 62.51 10.06Q62.40 9.91 62.22 9.83L62.22 9.83Q61.92 10.06 61.67 10.23Q61.41 10.40 61.22 10.51L61.22 10.51Q61.24 11.25 61.30 11.73Q61.36 12.21 61.47 12.37L61.47 12.37Q61.37 12.44 61.28 12.49Q61.18 12.54 61.11 12.56L61.11 12.56Q61.02 12.61 60.94 12.62L60.94 12.62Q60.66 12.70 60.45 12.60Q60.24 12.50 60.22 12.06L60.22 12.06L60.14 4.07Q60.14 3.96 60.35 3.85Q60.57 3.73 60.83 3.66Q61.09 3.60 61.30 3.60Q61.51 3.60 61.50 3.72L61.50 3.72Q61.46 4.66 61.41 5.50Q61.37 6.33 61.35 6.97L61.35 6.97Q61.30 7.72 61.28 8.34L61.28 8.34Q61.25 8.71 61.24 9.05Q61.24 9.39 61.22 9.71L61.22 9.71Q61.48 9.50 61.77 9.26Q62.06 9.01 62.32 8.71Q62.58 8.41 62.75 8.06Q62.93 7.71 62.96 7.31L62.96 7.31Q63.11 7.21 63.27 7.13Q63.42 7.05 63.55 7.01L63.55 7.01Q63.70 6.96 63.82 6.96L63.82 6.96Q64.13 6.95 64.19 7.10L64.19 7.10Q64.23 7.21 64.18 7.42Q64.13 7.63 63.98 7.92Q63.82 8.22 63.55 8.57Q63.27 8.91 62.85 9.30ZM66.87 12.71L66.87 12.71Q65.91 12.71 65.39 12.07Q64.87 11.43 64.87 10.39L64.87 10.39Q64.87 9.67 65.08 9.03Q65.30 8.39 65.65 7.93Q66.01 7.46 66.48 7.20Q66.95 6.93 67.47 6.93L67.47 6.93Q67.98 6.93 68.33 7.29Q68.69 7.66 68.69 8.33L68.69 8.33Q68.69 8.76 68.50 9.19Q68.30 9.63 68.00 9.96Q67.69 10.29 67.32 10.50Q66.95 10.71 66.61 10.71L66.61 10.71Q66.39 10.71 66.24 10.65Q66.09 10.60 65.97 10.49L65.97 10.49Q66.01 11.27 66.31 11.57Q66.61 11.88 67.09 11.88L67.09 11.88Q67.42 11.88 67.67 11.74Q67.92 11.61 68.10 11.43Q68.28 11.25 68.39 11.07Q68.50 10.88 68.54 10.79L68.54 10.79Q68.58 10.71 68.68 10.71Q68.78 10.71 68.78 10.87L68.78 10.87Q68.78 11.02 68.68 11.33Q68.58 11.63 68.35 11.94Q68.11 12.25 67.75 12.48Q67.39 12.71 66.87 12.71ZM67.50 7.52L67.50 7.52Q67.42 7.52 67.19 7.69Q66.96 7.86 66.71 8.19Q66.46 8.52 66.25 8.98Q66.04 9.43 65.98 10.01L65.98 10.01Q66.80 9.82 67.28 9.41Q67.76 9.00 67.76 8.20L67.76 8.20Q67.76 7.81 67.66 7.66Q67.57 7.52 67.50 7.52ZM74.72 6.48L74.72 6.48Q74.57 6.45 74.31 6.43Q74.06 6.40 73.80 6.38L73.80 6.38Q73.50 6.37 73.16 6.37L73.16 6.37Q72.82 6.34 72.30 6.36Q71.79 6.38 71.23 6.38L71.23 6.38Q71.22 6.74 71.18 7.11Q71.15 7.48 71.12 7.83L71.12 7.83Q71.05 8.49 71.00 9.17Q70.96 9.86 70.96 10.47Q70.96 11.09 71.03 11.59Q71.11 12.09 71.31 12.37L71.31 12.37Q71.15 12.50 70.96 12.56Q70.77 12.62 70.62 12.65L70.62 12.65Q70.44 12.69 70.26 12.69L70.26 12.69Q70.10 12.69 69.99 12.58Q69.88 12.47 69.86 12.20L69.86 12.20Q69.84 11.73 69.86 11.26Q69.88 10.79 69.91 10.27Q69.95 9.75 69.99 9.15Q70.03 8.56 70.07 7.85L70.07 7.85Q70.11 7.11 70.11 6.41L70.11 6.41Q69.59 6.43 69.23 6.43Q68.88 6.43 68.84 6.41L68.84 6.41Q68.80 6.38 68.74 6.29L68.74 6.29Q68.69 6.21 68.60 6.04Q68.51 5.88 68.37 5.58L68.37 5.58Q68.63 5.58 68.94 5.58Q69.25 5.58 69.51 5.56L69.51 5.56Q69.81 5.55 70.11 5.54L70.11 5.54Q70.10 5.32 70.10 5.07L70.10 5.07Q70.08 4.88 70.08 4.64Q70.08 4.40 70.07 4.20L70.07 4.20Q70.07 4.12 70.27 4.00Q70.46 3.88 70.70 3.79Q70.93 3.69 71.13 3.66Q71.33 3.64 71.33 3.76L71.33 3.76Q71.33 3.88 71.32 4.35Q71.31 4.83 71.29 5.50L71.29 5.50Q71.42 5.50 71.49 5.48L71.49 5.48Q72.21 5.46 72.66 5.42Q73.10 5.39 73.39 5.41Q73.68 5.44 73.90 5.55Q74.12 5.66 74.39 5.91L74.39 5.91Q74.48 5.99 74.55 6.08L74.55 6.08Q74.62 6.17 74.67 6.27Q74.72 6.37 74.72 6.48ZM74.58 9.97L74.58 9.97Q74.88 10.08 75.15 10.17Q75.43 10.27 75.63 10.40Q75.84 10.54 75.96 10.73Q76.08 10.91 76.08 11.18L76.08 11.18Q76.08 11.51 75.94 11.80Q75.80 12.09 75.52 12.30Q75.25 12.52 74.86 12.65Q74.47 12.78 73.99 12.78L73.99 12.78Q73.46 12.78 73.13 12.68Q72.80 12.58 72.63 12.44Q72.45 12.30 72.39 12.17Q72.34 12.03 72.34 11.95L72.34 11.95Q72.34 11.79 72.41 11.59Q72.47 11.39 72.67 11.16L72.67 11.16Q72.75 11.06 72.84 10.98L72.84 10.98Q73.04 10.81 73.23 10.77L73.23 10.77Q73.20 11.09 73.30 11.29Q73.40 11.48 73.58 11.59Q73.75 11.70 73.96 11.74Q74.17 11.79 74.36 11.79L74.36 11.79Q74.55 11.79 74.75 11.73Q74.95 11.68 75.11 11.59Q75.28 11.50 75.38 11.38Q75.48 11.27 75.48 11.13L75.48 11.13Q75.48 10.98 75.36 10.88Q75.24 10.79 75.05 10.73Q74.87 10.66 74.66 10.63Q74.44 10.60 74.25 10.55L74.25 10.55Q74.06 10.51 73.74 10.44Q73.42 10.36 73.11 10.20Q72.80 10.04 72.58 9.76Q72.35 9.49 72.35 9.04L72.35 9.04Q72.35 8.52 72.62 8.13Q72.88 7.74 73.27 7.47Q73.66 7.21 74.10 7.07Q74.54 6.93 74.88 6.93L74.88 6.93Q75.06 6.93 75.26 6.98Q75.47 7.03 75.65 7.14Q75.82 7.26 75.94 7.45Q76.06 7.64 76.06 7.94L76.06 7.94Q76.06 8.24 76.01 8.43Q75.96 8.61 75.87 8.72Q75.78 8.82 75.66 8.85Q75.54 8.87 75.37 8.87L75.37 8.87Q75.26 8.87 75.17 8.85L75.17 8.85Q75.09 8.82 74.99 8.79Q74.89 8.76 74.81 8.70L74.81 8.70Q74.95 8.53 75.02 8.38Q75.10 8.23 75.10 8.01L75.10 8.01Q75.10 7.82 75.00 7.67Q74.89 7.52 74.66 7.52L74.66 7.52Q74.42 7.52 74.19 7.62Q73.96 7.71 73.79 7.88Q73.62 8.04 73.52 8.25Q73.42 8.46 73.42 8.71L73.42 8.71Q73.42 9.08 73.70 9.41Q73.98 9.73 74.58 9.97Z"></path></g><defs data-v-fde0c5aa=""><linearGradient data-v-fde0c5aa="" gradientTransform="rotate(25)" id="131ba397-34f8-4977-bd01-c9ea45276258" x1="0%" y1="0%" x2="100%" y2="0%"><stop data-v-fde0c5aa="" offset="0%" stop-color="#693F24" stop-opacity="1"></stop><stop data-v-fde0c5aa="" offset="100%" stop-color="#9C9289" stop-opacity="1"></stop></linearGradient></defs><g data-v-fde0c5aa="" id="9f286cc3-5c55-4d70-85b2-053c177e67e9" stroke="none" fill="url(#131ba397-34f8-4977-bd01-c9ea45276258)" transform="matrix(0.18675494690464028,0,0,0.18675494690464028,102.18608224411368,74.16033083926453)"><path d="M376.8 262c2.9 16.3 17.1 28.2 33.7 28.2 18.9 0 34.3-15.3 34.3-34.2 0-18.9-15.3-34.3-34.2-34.3-16.6 0-30.8 11.9-33.7 28.2H135.4c-2.9-16.3-17.1-28.2-33.7-28.2-18.9 0-34.2 15.3-34.2 34.2 0 18.9 15.3 34.2 34.2 34.2 9.1 0 17.8-3.6 24.2-10 5-4.9 8.3-11.3 9.5-18.2h241.4z"></path><path d="M476.1 325.7c-13.4-13.4-35.1-13.4-48.5 0-5 5-8.3 11.4-9.5 18.3h-56.2c-12.6-.1-22.8-10.4-22.8-23 0-19.2-15.5-34.9-34.8-35h-96.6c-19.2.1-34.8 15.8-34.8 35 0 12.6-10.2 22.9-22.8 23H94c-1.2-6.9-4.5-13.3-9.5-18.3-13.4-13.3-35-13.2-48.3.1-13.3 13.4-13.2 35 .1 48.3 13.3 13.2 34.8 13.2 48.1 0 5-4.9 8.3-11.2 9.5-18.1h56.2c19.2-.1 34.8-15.8 34.8-35 0-12.6 10.2-22.9 22.8-23h96.6c12.6.1 22.8 10.4 22.8 23 0 19.2 15.5 34.9 34.8 35h56.2c1.2 6.9 4.5 13.2 9.5 18.1 13.4 13.4 35.1 13.4 48.5 0 13.3-13.3 13.4-35 0-48.4z"></path><path d="M391.6 391.3c-9.1 0-17.9 3.6-24.3 10.1-5.8 5.8-9.3 13.5-9.9 21.6h-8.1c-12.7-.1-23.9-8-28.3-19.9l-18.7-50.5a42.53 42.53 0 00-39.6-27.6h-13c-17.6 0-33.4 11-39.6 27.5l-18.7 50.6c-4.4 11.9-15.7 19.8-28.3 19.9H155c-1.5-18.7-17.9-32.6-36.6-31.1-18.7 1.5-32.6 17.9-31.1 36.6s17.9 32.6 36.6 31.1c8-.6 15.5-4.1 21.2-9.8 4.1-4.2 7.1-9.3 8.7-14.8h9.2c17.7-.1 33.4-11.1 39.6-27.7l18.7-50.5c4.4-11.8 15.7-19.7 28.3-19.7h13c12.6 0 23.9 7.8 28.3 19.7l18.7 50.6c6.2 16.6 21.9 27.6 39.6 27.7h9.2c1.8 5.5 4.7 10.6 8.6 14.8v-.1c7 6.5 15.1 10 24.3 10 18.9.1 34.3-15.2 34.3-34.1.1-19-15.1-34.3-34-34.4zM84.4 186.4l.1-.1c5-5 8.3-11.4 9.5-18.3h56.2c12.6.1 22.8 10.4 22.8 23 0 19.2 15.5 34.9 34.8 35h96.6c19.2-.1 34.8-15.8 34.8-35 0-12.6 10.2-22.9 22.8-23h56.2c1.2 6.9 4.5 13.3 9.5 18.3 13.4 13.4 35.1 13.4 48.4 0 13.4-13.4 13.4-35.1 0-48.4-13.4-13.4-35-13.4-48.4 0-5 4.9-8.3 11.2-9.5 18.1H362c-19.2.1-34.8 15.8-34.8 35 0 12.6-10.2 22.9-22.8 23h-96.6c-12.6-.1-22.8-10.4-22.8-23 0-19.2-15.5-34.9-34.8-35H94c-1.2-6.9-4.5-13.2-9.5-18.1-13.4-13.4-35.1-13.5-48.5-.1-13.4 13.4-13.5 35.1-.1 48.5 13.4 13.4 35.1 13.5 48.5.1z"></path><path d="M144.9 110.6c5.8-5.8 9.3-13.4 9.9-21.6h8.1c12.7.1 23.9 8 28.3 19.9l18.7 50.5a42.53 42.53 0 0039.6 27.6h13c17.6 0 33.4-11 39.6-27.5l18.7-50.6c4.4-11.9 15.7-19.8 28.3-19.9h8.1c1.5 18.7 17.9 32.6 36.6 31.1s32.6-17.9 31.1-36.6-17.9-32.6-36.6-31.1c-8 .6-15.5 4.1-21.2 9.8-4.1 4.2-7.1 9.3-8.7 14.8h-9.2c-17.7.1-33.4 11.1-39.6 27.7l-18.7 50.5c-4.4 11.8-15.7 19.7-28.3 19.7h-13c-12.6 0-23.9-7.8-28.3-19.7l-18.7-50.6C196.4 88 180.7 77 163 76.9h-9.2c-1.8-5.5-4.7-10.6-8.6-14.8v.1c-7-6.5-15.1-10-24.3-10-9.1 0-17.9 3.6-24.3 10.1-13.3 13.4-13.3 35 .1 48.4 13.3 13.3 34.9 13.3 48.2-.1z"></path></g><!----></svg>